# xmcd CD database file
#
# Track frame offsets:
#	150
#	10976
#	25378
#	39762
#	53241
#	67320
#	81280
#	92956
#	106438
#	122006
#	136411
#	149967
#	162046
#	175909
#	189321
#	202861
#
# Disc length: 2956 seconds
#
# Revision: 0
# Processed by: cddbd v1.5.2PL0 Copyright (c) Steve Scherf et al.
# Submitted via: CDex 1.51
#
DISCID=e30b8a10
DTITLE=John Lee Hooker - Great Blues Masters Vol.3
DYEAR=2006
DGENRE=Blues
TTITLE0=Gotta Boogie(Gonna Boogie)
TTITLE1=Cool Little Car
TTITLE2=Lookin' For A Woman
TTITLE3=Ride 'Til I Die
TTITLE4=I Wonder Little Darling
TTITLE5=Bad Boy
TTITLE6=Baby I'm Gonna Miss You
TTITLE7=Shake Holler and Run
TTITLE8=I Need Love So Bad
TTITLE9=I Love You Baby
TTITLE10=The Syndicator
TTITLE11=Roll 'n' Roll
TTITLE12=It's Stormin' and Rainin'
TTITLE13=Please Take Me Back
TTITLE14=Need Somebody
TTITLE15=I Feel Good
EXTD=YEAR: 2006
EXTT0=
EXTT1=
EXTT2=
EXTT3=
EXTT4=
EXTT5=
EXTT6=
EXTT7=
EXTT8=
EXTT9=
EXTT10=
EXTT11=
EXTT12=
EXTT13=
EXTT14=
EXTT15=
PLAYORDER=
